<svg width="71" height="75" viewBox="0 0 71 75" fill="none" xmlns="http://www.w3.org/2000/svg">
<path d="M43.4859 3.07031H11.0972C8.94967 3.07031 6.89012 3.8017 5.37161 5.10358C3.85309 6.40546 3 8.17119 3 10.0123V65.5484C3 67.3896 3.85309 69.1553 5.37161 70.4572C6.89012 71.759 8.94967 72.4904 11.0972 72.4904H59.6802C61.8277 72.4904 63.8873 71.759 65.4058 70.4572C66.9243 69.1553 67.7774 67.3896 67.7774 65.5484V23.8963L43.4859 3.07031Z" stroke="white" stroke-width="5" stroke-linecap="round" stroke-linejoin="round"/>
<path d="M51.584 55.1348H19.1953" stroke="white" stroke-width="5" stroke-linecap="round" stroke-linejoin="round"/>
<path d="M51.584 41.252H19.1953" stroke="white" stroke-width="5" stroke-linecap="round" stroke-linejoin="round"/>
<path d="M27.2925 27.3682H23.2439H19.1953" stroke="white" stroke-width="5" stroke-linecap="round" stroke-linejoin="round"/>
<path d="M43.4863 3.07031V23.8963H67.7779" stroke="white" stroke-width="5" stroke-linecap="round" stroke-linejoin="round"/>
</svg>
